<svg width="21" height="24" viewBox="0 0 21 24" fill="none" xmlns="http://www.w3.org/2000/svg">
<g clip-path="url(#clip0)">
<path d="M10.9375 2C10.6959 2 10.5 2.19589 10.5 2.43751V12.0624C10.5 12.3041 10.6959 12.4999 10.9375 12.4999H20.5624C20.8041 12.4999 21 12.3041 21 12.0624C20.9936 6.5077 16.4922 2.00628 10.9375 2Z" fill="#E3A716"/>
<path d="M15.658 20.5428L9.62493 12.7869V3.31159C9.62493 3.06997 9.42904 2.87408 9.18742 2.87408C4.12121 2.87408 0 7.38818 0 12.9365C0.00627534 18.4912 4.5077 22.9927 10.0624 22.9989C12.0792 23.1557 14.0735 22.4883 15.5897 21.1492C15.773 20.9989 15.8032 20.7301 15.658 20.5428Z" fill="#4D4E55"/>
<path d="M20.5625 13.3748H11.8126C11.571 13.3749 11.3752 13.5708 11.3752 13.8124C11.3752 13.9124 11.4095 14.0093 11.4723 14.087L17.1598 21.1281C17.236 21.2228 17.3483 21.2814 17.4695 21.29H17.5001C17.6108 21.2901 17.7175 21.2481 17.7985 21.1727C19.8366 19.2668 20.9954 16.6027 21.0001 13.8123C21.0001 13.5707 20.8042 13.3748 20.5625 13.3748Z" fill="#00AFCB"/>
</g>
<defs>
<clipPath id="clip0">
<rect width="21" height="24" fill="white"/>
</clipPath>
</defs>
</svg>
