<svg width="22" height="11" viewBox="0 0 22 11" fill="none" xmlns="http://www.w3.org/2000/svg">
<path d="M9.13794 8.02525L2.15012 4.3002L8.06289 4.3002L8.06289 2.1501L9.13794 2.72525L9.13794 0L1.43521 -3.36697e-07C0.645044 -3.71236e-07 1.54692e-05 0.639654 1.54345e-05 1.43519L1.50898e-05 9.32068C1.50552e-05 10.1108 0.639669 10.7559 1.43521 10.7559L9.13794 10.7559L9.13794 8.02525V8.02525Z" fill="#08AD36"/>
<path d="M19.3509 9.31531L19.3509 7.52535L21.501 7.52535L21.501 3.22515L19.3509 3.22515L19.3509 1.43519C19.3509 0.639655 18.7112 -1.21944e-07 17.9157 -1.56718e-07L9.1379 -5.40407e-07L9.1379 2.72525L16.1257 6.4503L10.213 6.4503L10.213 8.6004L9.1379 8.02525L9.1379 10.7505L17.9157 10.7505C18.7112 10.7505 19.3509 10.1108 19.3509 9.31531V9.31531Z" fill="#4D4E55"/>
</svg>
