<svg width="21" height="24" viewBox="0 0 21 24" fill="none" xmlns="http://www.w3.org/2000/svg">
<path d="M3.07537 5.07537C5.05854 3.0922 7.6954 2 10.5 2C13.3048 2 15.9415 3.0922 17.9246 5.07537C19.9078 7.05854 21 9.69524 21 12.5C21 15.3046 19.9078 17.9415 17.9246 19.9246C15.9415 21.9078 13.3048 23 10.5 23C7.6954 23 5.05854 21.9078 3.07537 19.9246C1.0922 17.9415 0 15.3046 0 12.5C0 9.69524 1.0922 7.05854 3.07537 5.07537ZM15.7361 20.1448C15.2969 17.6162 13.1058 15.7511 10.5 15.7511C7.89407 15.7511 5.7031 17.6162 5.26394 20.1448C6.75476 21.169 8.55849 21.7695 10.5 21.7695C12.4415 21.7695 14.2452 21.169 15.7361 20.1448ZM13.8386 11.1821C13.8386 9.341 12.3409 7.84344 10.5 7.84344C8.6591 7.84344 7.16139 9.34116 7.16139 11.1821C7.16139 13.0229 8.6591 14.5207 10.5 14.5207C12.3409 14.5207 13.8386 13.0229 13.8386 11.1821ZM4.19817 19.2913C4.52934 18.1142 5.18703 17.0462 6.10892 16.2119C6.67449 15.7 7.31824 15.2961 8.01038 15.0114C6.75941 14.1954 5.93076 12.7837 5.93076 11.1821C5.93076 8.66264 7.98058 6.61298 10.5 6.61298C13.0194 6.61298 15.0691 8.66264 15.0691 11.1821C15.0691 12.7837 14.2404 14.1954 12.9896 15.0114C13.6816 15.2961 14.3255 15.6999 14.8911 16.2118C15.8128 17.046 16.4707 18.114 16.8018 19.2911C18.6259 17.5972 19.7695 15.1798 19.7695 12.5C19.7695 7.38875 15.6113 3.23047 10.5 3.23047C5.38875 3.23047 1.23047 7.38875 1.23047 12.5C1.23047 15.18 2.3741 17.5973 4.19817 19.2913Z" fill="#4D4E55"/>
</svg>
