<svg width="32" height="32" viewBox="0 0 32 32" fill="none" xmlns="http://www.w3.org/2000/svg">
<path fill-rule="evenodd" clip-rule="evenodd" d="M0.416626 16C0.416626 7.39352 7.39352 0.416626 16 0.416626C24.6064 0.416626 31.5833 7.39352 31.5833 16C31.5833 24.6064 24.6064 31.5833 16 31.5833C7.39352 31.5833 0.416626 24.6064 0.416626 16Z" fill="#08AD36"/>
<path fill-rule="evenodd" clip-rule="evenodd" d="M23.5234 10.3942C24.0767 10.9474 24.0767 11.8444 23.5234 12.3976L14.73 21.606C14.1768 22.1592 13.2798 22.1592 12.7266 21.606L8.47658 17.356C7.92333 16.8027 7.92333 15.9057 8.47658 15.3525C9.02982 14.7993 9.9268 14.7993 10.48 15.3525L13.7283 18.6008L21.52 10.3942C22.0732 9.84092 22.9702 9.84092 23.5234 10.3942Z" fill="white"/>
</svg>
