<svg width="22" height="22" viewBox="0 0 22 22" fill="none" xmlns="http://www.w3.org/2000/svg">
<path d="M16.6525 4.95177V20.87C16.6525 21.4941 16.1466 22 15.5226 22H2.41124C1.78712 22 1.28125 21.4941 1.28125 20.87V4.95177C1.28125 4.32765 1.78716 3.82178 2.41124 3.82178H15.5226C16.1467 3.82178 16.6525 4.32769 16.6525 4.95177Z" fill="#3D9AE2"/>
<path d="M16.6524 4.95177V20.5279H3.66027C3.03614 20.5279 2.53027 20.022 2.53027 19.3979V3.82178H15.5225C16.1466 3.82178 16.6524 4.32769 16.6524 4.95177Z" fill="#5AAAE7"/>
<path d="M19.9164 17.4452L7.36984 21.2505C6.77249 21.4316 6.14171 21.0944 5.96055 20.4975L1.34017 5.26401C1.15858 4.66709 1.49584 4.03588 2.09319 3.85472L2.33721 3.78068L14.6397 0.0489345C15.2371 -0.132179 15.8679 0.205083 16.049 0.802434L20.565 15.6902L20.6699 16.0359C20.8509 16.6328 20.5137 17.2641 19.9164 17.4452Z" fill="#96C8EF"/>
<path d="M20.5652 15.6902L8.26224 19.4214C7.66488 19.6026 7.0341 19.2653 6.85295 18.6684L2.3374 3.78068L14.6399 0.0489345C15.2373 -0.132179 15.868 0.205083 16.0492 0.802434L20.5652 15.6902Z" fill="#C2DFF6"/>
<path d="M9.44302 7.62257C9.94997 7.65548 10.1988 7.68827 10.3148 8.07069C10.4145 8.39957 10.2899 8.60466 9.92268 8.71604C9.58117 8.81964 9.41501 8.72265 9.26831 8.63698C9.17004 8.57961 9.05867 8.51456 8.91941 8.5568C8.70697 8.62121 8.60952 8.89315 8.66744 9.08415C8.76244 9.39744 9.24657 9.59552 9.77685 9.55157L9.81732 9.6849C9.88448 9.90623 10.1191 10.0317 10.3405 9.96454C10.5618 9.89738 10.6872 9.66273 10.6201 9.44139L10.577 9.29917C11.0988 8.98592 11.2859 8.44641 11.0904 7.80192C10.8075 6.86941 10.0595 6.8249 9.61258 6.79834L9.56033 6.79529C9.11612 6.76968 8.9164 6.74734 8.83712 6.48609C8.79304 6.34072 8.8128 6.23541 8.90119 6.14444C8.9937 6.04914 9.13807 5.99126 9.24287 5.95942C9.49618 5.88259 9.6555 5.91172 9.77178 5.93295C9.85449 5.94808 9.93265 5.96239 10.0178 5.93656C10.2573 5.8639 10.3158 5.57958 10.2645 5.41079C10.1556 5.05153 9.60772 5.08857 9.31429 5.13635L9.27351 5.00186C9.20635 4.78053 8.9717 4.6551 8.75041 4.72218C8.52908 4.78934 8.40365 5.02399 8.47077 5.24532L8.5268 5.43004C8.05969 5.73727 7.89447 6.20387 8.06153 6.75477C8.3022 7.5484 8.93479 7.58948 9.44302 7.62257Z" fill="#3D9AE2"/>
<path d="M16.2314 9.55784C16.1778 9.38098 15.9908 9.28121 15.8141 9.33479L6.27611 12.2279C6.0993 12.2816 5.99944 12.4684 6.05306 12.6452C6.09689 12.7897 6.22958 12.8828 6.37309 12.8828C6.40528 12.8828 6.43802 12.8781 6.47033 12.8683L16.0083 9.9752C16.1852 9.92153 16.285 9.73466 16.2314 9.55784Z" fill="#3D9AE2"/>
<path d="M16.7881 11.3938C16.7344 11.2169 16.5475 11.1172 16.3707 11.1707L6.83275 14.0638C6.65594 14.1175 6.55608 14.3043 6.6097 14.4811C6.65353 14.6256 6.78622 14.7187 6.92974 14.7187C6.96192 14.7187 6.99466 14.714 7.02697 14.7042L16.565 11.8111C16.7418 11.7574 16.8417 11.5706 16.7881 11.3938Z" fill="#3D9AE2"/>
<path d="M17.3451 13.2297C17.2915 13.0529 17.1045 12.9531 16.9278 13.0067L7.38988 15.8998C7.21307 15.9535 7.11321 16.1403 7.16683 16.3171C7.21066 16.4616 7.34335 16.5547 7.48686 16.5547C7.51905 16.5547 7.55179 16.55 7.5841 16.5402L17.1221 13.6471C17.2989 13.5934 17.3988 13.4065 17.3451 13.2297Z" fill="#3D9AE2"/>
<path d="M17.9023 15.0656C17.8487 14.8888 17.6618 14.789 17.485 14.8426L7.94701 17.7357C7.7702 17.7894 7.67034 17.9762 7.72396 18.153C7.76779 18.2975 7.90048 18.3906 8.04399 18.3906C8.07618 18.3906 8.10892 18.3859 8.14123 18.3761L17.6792 15.483C17.8561 15.4293 17.9559 15.2424 17.9023 15.0656Z" fill="#3D9AE2"/>
<path d="M6.50891 2.51528L5.86829 2.70933C5.66977 2.11911 5.11122 1.69308 4.455 1.69308C3.6328 1.69308 2.96407 2.3618 2.96407 3.18401V7.05184C2.96407 7.53232 3.3553 7.92355 3.83578 7.92355C4.31626 7.92355 4.70749 7.53232 4.70749 7.05184V3.19247C4.70749 3.14877 4.69722 3.10727 4.67805 3.0707C4.63388 2.98369 4.54335 2.92392 4.43893 2.92392C4.29082 2.92392 4.17038 3.04436 4.17038 3.19247V6.51202C4.17038 6.6967 4.0205 6.84662 3.83578 6.84662C3.65106 6.84662 3.50118 6.69675 3.50118 6.51202V3.19247C3.50118 2.67543 3.92189 2.25472 4.43893 2.25472C4.8449 2.25472 5.1911 2.51391 5.32134 2.87528C5.35705 2.97432 5.37664 3.0814 5.37664 3.19247V7.0518C5.37664 7.9012 4.68514 8.59265 3.83578 8.59265C2.98595 8.59265 2.29492 7.90116 2.29492 7.0518V3.18401C2.29492 1.99287 3.26387 1.02393 4.455 1.02393C5.41282 1.02393 6.22695 1.65071 6.50891 2.51528Z" fill="#1E81CE"/>
</svg>
