<svg width="21" height="24" viewBox="0 0 21 24" fill="none" xmlns="http://www.w3.org/2000/svg">
<path d="M10.4757 14.8773C9.01151 14.8773 7.80298 13.6688 7.80298 12.2046C7.80298 10.7404 9.01147 9.53192 10.4757 9.53192C11.9398 9.53192 13.1483 10.7404 13.1483 12.2046C13.1483 13.6688 11.9398 14.8773 10.4757 14.8773ZM10.4757 10.9264C9.77846 10.9264 9.19741 11.5074 9.19741 12.2046C9.19741 12.9018 9.77841 13.4828 10.4757 13.4828C11.1729 13.4828 11.7539 12.9018 11.7539 12.2046C11.7539 11.5074 11.1728 10.9264 10.4757 10.9264Z" fill="#4DCFE0"/>
<path d="M3.36404 19.4101C3.1781 19.4101 3.01542 19.3403 2.87601 19.2009C-0.958669 15.3429 -0.958669 9.06803 2.87601 5.21013C3.15488 4.93126 3.59647 4.93126 3.85211 5.21013C4.13098 5.489 4.13098 5.93059 3.85211 6.18623C0.551954 9.50962 0.551954 14.9014 3.85211 18.2248C4.13098 18.5037 4.13098 18.9453 3.85211 19.2009C3.71266 19.3403 3.54998 19.4101 3.36404 19.4101Z" fill="#1185E0"/>
<path d="M17.5871 19.4091C17.4011 19.4091 17.2385 19.3394 17.099 19.2C16.8202 18.9211 16.8202 18.4795 17.099 18.2238C20.3992 14.9005 20.3992 9.50868 17.099 6.18526C16.8202 5.90639 16.8202 5.4648 17.099 5.20915C17.3779 4.93028 17.8195 4.93028 18.0752 5.20915C21.9098 9.06709 21.9098 15.342 18.0752 19.1999C17.9357 19.3394 17.773 19.4091 17.5871 19.4091Z" fill="#1185E0"/>
<path d="M6.31551 16.4808C6.12957 16.4808 5.96689 16.4111 5.82748 16.2717C3.57313 14.0173 3.57313 10.3686 5.82748 8.1375C6.10635 7.85863 6.54794 7.85863 6.80359 8.1375C7.08245 8.41636 7.08245 8.85795 6.80359 9.1136C5.10702 10.8102 5.10702 13.5758 6.80359 15.2956C7.08245 15.5744 7.08245 16.016 6.80359 16.2717C6.66408 16.4111 6.50141 16.4808 6.31551 16.4808Z" fill="#1185E0"/>
<path d="M14.6357 16.4808C14.4497 16.4808 14.287 16.4111 14.1476 16.2717C13.8688 15.9928 13.8688 15.5512 14.1476 15.2956C15.8442 13.599 15.8442 10.8334 14.1476 9.1136C13.8688 8.83473 13.8688 8.39314 14.1476 8.1375C14.4265 7.85863 14.8681 7.85863 15.1237 8.1375C17.3781 10.3918 17.3781 14.0406 15.1237 16.2717C14.9843 16.4111 14.8216 16.4808 14.6357 16.4808Z" fill="#1185E0"/>
</svg>
