<svg width="23" height="12" viewBox="0 0 23 12" fill="none" xmlns="http://www.w3.org/2000/svg">
<path d="M9.5625 8.39813L2.25 4.5L8.4375 4.5L8.4375 2.25L9.5625 2.85188L9.5625 0L1.50187 -3.52341e-07C0.675 -3.88485e-07 9.8402e-07 0.669375 9.4763e-07 1.50187L5.86929e-07 9.75375C5.50785e-07 10.5806 0.669374 11.2556 1.50187 11.2556L9.5625 11.2556L9.5625 8.39813V8.39813Z" fill="#08AD36"/>
<path d="M20.25 9.74812L20.25 7.875L22.5 7.875L22.5 3.375L20.25 3.375L20.25 1.50187C20.25 0.669375 19.5806 -1.2761e-07 18.7481 -1.64e-07L9.5625 -5.65516e-07L9.5625 2.85187L16.875 6.75L10.6875 6.75L10.6875 9L9.5625 8.39812L9.5625 11.25L18.7481 11.25C19.5806 11.25 20.25 10.5806 20.25 9.74812V9.74812Z" fill="#4D4E55"/>
</svg>
